<svg xmlns="http://www.w3.org/2000/svg">
  <defs>
    <path id="pl" d="m56.56,3.211l0.149,-0.631l1.2,0l0,4.752a2.394,2.394 0 0 1 -0.871,2.06a3.037,3.037 0 0 1 -1.854,0.612a3.221,3.221 0 0 1 -2.373,-0.928l0.76,-1.058a2.19,2.19 0 0 0 1.52,0.668c1.02,0 1.464,-0.5 1.464,-1.244l0,-0.353a1.875,1.875 0 0 1 -1.427,0.594a2.59,2.59 0 0 1 0.037,-5.178a1.693,1.693 0 0 1 1.39,0.705m-1.223,0.539a1.308,1.308 0 1 0 1.3,1.317a1.283,1.283 0 0 0 -1.3,-1.317m-44.08,-0.093a1.132,1.132 0 0 0 -1.167,0.868l2.3,0a1.122,1.122 0 0 0 -1.13,-0.872m0.074,4.028a2.533,2.533 0 0 1 -2.67,-2.6a2.574,2.574 0 0 1 2.633,-2.636a2.458,2.458 0 0 1 2.447,2.6a2.379,2.379 0 0 1 -0.037,0.482l-3.636,0a1.228,1.228 0 0 0 1.242,0.929a1.749,1.749 0 0 0 1.335,-0.576l0.834,0.854a2.833,2.833 0 0 1 -2.151,0.947m15.405,-4.028a1.133,1.133 0 0 0 -1.168,0.872l2.3,0a1.123,1.123 0 0 0 -1.131,-0.872m0.074,4.028a2.533,2.533 0 0 1 -2.67,-2.6a2.574,2.574 0 0 1 2.633,-2.636a2.458,2.458 0 0 1 2.447,2.6a2.38,2.38 0 0 1 -0.037,0.482l-3.634,0a1.229,1.229 0 0 0 1.242,0.929a1.749,1.749 0 0 0 1.335,-0.576l0.834,0.854a2.833,2.833 0 0 1 -2.15,0.947m39.709,-4.027a1.132,1.132 0 0 0 -1.168,0.872l2.3,0a1.123,1.123 0 0 0 -1.131,-0.872m0.074,4.027a2.533,2.533 0 0 1 -2.67,-2.6a2.574,2.574 0 0 1 2.633,-2.636a2.458,2.458 0 0 1 2.447,2.6a2.331,2.331 0 0 1 -0.038,0.482l-3.633,0a1.228,1.228 0 0 0 1.242,0.928a1.749,1.749 0 0 0 1.335,-0.575l0.834,0.854a2.832,2.832 0 0 1 -2.15,0.947m-22.8,-4.027a1.132,1.132 0 0 0 -1.168,0.872l2.3,0a1.122,1.122 0 0 0 -1.131,-0.872m0.074,4.027a2.533,2.533 0 0 1 -2.67,-2.6a2.573,2.573 0 0 1 2.632,-2.636a2.458,2.458 0 0 1 2.447,2.6a2.38,2.38 0 0 1 -0.037,0.482l-3.634,0a1.229,1.229 0 0 0 1.242,0.928a1.75,1.75 0 0 0 1.335,-0.575l0.834,0.854a2.831,2.831 0 0 1 -2.15,0.947m-7.619,-0.13l0,-7.364l1.464,0l0,5.976l3.189,0l0,1.392l-4.656,0l0.003,-0.004zm-30.662,0l0,-4.97l1.186,0l0.149,0.724a1.349,1.349 0 0 1 1.257,-0.78a1.4,1.4 0 0 1 0.389,0.056l0,1.318a2.141,2.141 0 0 0 -0.482,-0.056a1.074,1.074 0 0 0 -1.13,1.206l0,2.506l-1.372,0l0.003,-0.004zm24.174,0l0,-4.97l1.186,0l0.148,0.724a1.351,1.351 0 0 1 1.261,-0.78a1.406,1.406 0 0 1 0.39,0.056l0,1.318a2.143,2.143 0 0 0 -0.482,-0.056a1.074,1.074 0 0 0 -1.131,1.206l0,2.506l-1.377,0l0.005,-0.004zm-9.587,-2.926c0,-0.538 -0.3,-0.872 -0.76,-0.872c-0.537,0 -0.815,0.334 -0.815,0.891l0,2.911l-1.373,0l0,-2.93c0,-0.538 -0.3,-0.872 -0.76,-0.872c-0.538,0 -0.816,0.334 -0.816,0.891l0,2.911l-1.372,0l0,-4.974l1.2,0l0.149,0.65a1.305,1.305 0 0 1 1.223,-0.779a1.594,1.594 0 0 1 1.391,0.743l0.037,0.056l0.037,-0.056a1.628,1.628 0 0 1 1.446,-0.743a1.776,1.776 0 0 1 1.78,1.93l0,3.173l-1.372,0l0,-2.93l0,0l0.005,0zm2.762,-2.709a0.845,0.845 0 1 1 0.853,-0.835a0.836,0.836 0 0 1 -0.853,0.835m-0.7,0.668l1.372,0l0,4.971l-1.372,0l0,-4.971zm27.251,1.17a1.309,1.309 0 1 0 1.279,1.317a1.272,1.272 0 0 0 -1.279,-1.317m-0.278,3.934a2.6,2.6 0 0 1 -2.465,-2.617a2.56,2.56 0 0 1 2.465,-2.561a1.685,1.685 0 0 1 1.539,0.724l0.148,-0.65l1.2,0l0,4.971l-1.2,0l-0.148,-0.631a1.817,1.817 0 0 1 -1.539,0.761m11.809,0a2.276,2.276 0 0 1 -2.428,-2.45l0,-2.654l1.366,0l0,2.561c0,0.854 0.39,1.225 1.057,1.225c0.612,0 1.057,-0.427 1.057,-1.225l0,-2.561l1.372,0l0,2.654a2.285,2.285 0 0 1 -2.429,2.45m-59.545,-4.009l0.853,0a1.138,1.138 0 0 0 1.279,-1.151a1.124,1.124 0 0 0 -1.279,-1.132l-0.853,0l0,2.283zm-1.464,3.879l0,-7.554l2.391,0a2.549,2.549 0 1 1 0,5.086l-0.927,0l0,2.468l-1.464,0z"/>
    <path id="pl-logo" d="m7.013,4.576a2.815,2.815 0 0 1 -0.4,0.279l0,0.568a1.993,1.993 0 0 1 0.424,0.568a1.677,1.677 0 0 0 -0.024,-1.415m-0.177,1.858a1.075,1.075 0 0 0 -0.236,-0.452l-0.431,0.01a2.3,2.3 0 0 1 -0.935,0.5s0.2,0.356 0.294,0.542a1.524,1.524 0 0 0 0.676,-0.35a2,2 0 0 1 0.074,0.63a1.316,1.316 0 0 0 0.555,-0.881m-0.553,-1.024l0,-0.566a1.944,1.944 0 0 1 -0.532,-0.29a3.246,3.246 0 0 0 -1.221,0.627s0.226,0.42 0.473,0.874c0.434,0.06 1.075,-0.479 1.281,-0.645m1.472,2.356l-0.353,-0.386a3.323,3.323 0 0 1 -1.581,2.546l-0.146,-0.562a3.294,3.294 0 0 1 -3.4,0.284a4.516,4.516 0 0 0 0,-2.4a5.233,5.233 0 0 1 -1.249,1.4a4.391,4.391 0 0 1 -0.279,-2.647l-0.745,0.222a4.037,4.037 0 0 1 0.894,-2.144l-0.466,-0.078l0,0a4.326,4.326 0 0 1 1.366,-1.586l0,0a0.881,0.881 0 0 0 0.333,1.186a0.94,0.94 0 0 1 -0.017,-1.07a0.643,0.643 0 0 1 0.847,0.028a0.713,0.713 0 0 0 -0.6,-0.485l0,0a4.413,4.413 0 0 1 1.993,-0.473c0.134,0 0.268,0.006 0.4,0.017l0,0a2.118,2.118 0 0 1 0.658,0.55a1.089,1.089 0 0 0 -0.108,-0.467a2.7,2.7 0 0 1 1.3,0.645a2.575,2.575 0 0 0 0.265,0.84a4.189,4.189 0 0 0 -1.186,-0.83a1.026,1.026 0 0 1 -0.129,0.423a4.479,4.479 0 0 0 -0.9,-0.533a2.565,2.565 0 0 0 -1.316,0.539l0.2,0.168a1.462,1.462 0 0 0 -0.656,0.455c0,0.006 0.356,0.055 0.356,0.055a0.725,0.725 0 0 0 0.483,0.661c0.444,0.218 1.083,-0.053 1.685,0.184a4.793,4.793 0 0 0 -0.669,-0.648a1.614,1.614 0 0 0 -0.268,-0.031a1.4,1.4 0 0 1 -0.57,-0.059a2.213,2.213 0 0 1 -0.33,-0.169a1.347,1.347 0 0 1 0.684,-0.341a2.337,2.337 0 0 1 0.656,0.311a0.6,0.6 0 0 1 0.395,-0.18a0.448,0.448 0 0 0 -0.139,0.4a7.486,7.486 0 0 1 0.6,0.615a1.37,1.37 0 0 1 1.159,0.03a4.027,4.027 0 0 0 -0.644,-0.587a1.944,1.944 0 0 0 -0.276,-0.411a1.2,1.2 0 0 1 0.4,0.228a0.508,0.508 0 0 1 0.291,-0.185a0.46,0.46 0 0 1 0.162,0.323a0.435,0.435 0 0 1 -0.126,0.1l0.339,0.36l0.034,-0.258a4.1,4.1 0 0 1 0.66,3.955m-6.18,-6.925a3.563,3.563 0 0 1 0.793,0.5c-0.024,-0.117 -0.113,-0.667 -0.164,-1.008c0.263,0.179 0.872,0.594 1.073,0.728c0.081,-0.247 0.365,-1.055 0.365,-1.055s0.512,0.813 0.6,0.945c0.107,-0.11 0.718,-0.777 0.877,-0.946c0.026,0.384 0.062,0.934 0.072,1.016a3.365,3.365 0 0 1 0.656,-0.658a3.384,3.384 0 0 0 -0.288,1.143a4.6,4.6 0 0 0 -1.214,-0.162a4.541,4.541 0 0 0 -2.219,0.573a3.46,3.46 0 0 0 -0.551,-1.076"/>
    <g id="ll">
      <path d="m16.73999,0.02498a1.043,1.043 0 0 1 0.815,0.156a1.007,1.007 0 0 1 0.429,0.943a1.037,1.037 0 0 1 -0.773,0.888a1,1 0 0 1 -1,-0.3a1.047,1.047 0 0 1 -0.107,-1.218a1.016,1.016 0 0 1 0.639,-0.469l-0.003,0z"/>
      <path d="m0,1.06102l1.81,0q0,2.7 0,5.393l2.19,0c0,0.529 0,1.059 0,1.589l-4,0q0,-3.491 0,-6.983l0,0.001z"/>
      <path d="m11.34,1.06001l1.81,0q0,2.7 0,5.394c0.73,0 1.46,0 2.19,0c0,0.528 0,1.056 0,1.584l-4,0q0,-3.487 0,-6.978z"/>
      <path d="m5.481,2.83401a2.529,2.529 0 0 1 1.563,-0.5a1.994,1.994 0 0 1 0.962,0.243a3.222,3.222 0 0 1 0.586,0.436c0,-0.19 0,-0.38 0,-0.57l1.669,0q0,2.8 0,5.6l-1.693,0c0,-0.18 0,-0.36 0,-0.54a2.387,2.387 0 0 1 -1.71,0.678a2.526,2.526 0 0 1 -1.624,-0.574a2.654,2.654 0 0 1 -0.844,-1.461a3.733,3.733 0 0 1 -0.043,-1.437a3,3 0 0 1 1.134,-1.872m1.51,1.106a1.244,1.244 0 0 0 -0.7,0.446a1.532,1.532 0 0 0 -0.132,1.547a1.207,1.207 0 0 0 0.832,0.688a1.38,1.38 0 0 0 1.481,-0.641a1.45,1.45 0 0 0 -0.337,-1.811a1.371,1.371 0 0 0 -1.144,-0.231l0,0.002z"/>
      <path d="m19.84001,2.65598a2.385,2.385 0 0 1 1.74,-0.235a2.185,2.185 0 0 1 1.068,0.665q0,-0.311 0,-0.622l1.612,0q0,2.13 0,4.26a8.082,8.082 0 0 1 -0.039,1.151a2.376,2.376 0 0 1 -0.814,1.472a3.06,3.06 0 0 1 -1.824,0.655l-0.34,0a3.294,3.294 0 0 1 -1.595,-0.465a2.086,2.086 0 0 1 -0.983,-1.481q0.945,0 1.891,0a1.236,1.236 0 0 0 1.886,0.031a1.438,1.438 0 0 0 0.128,-0.87a2.756,2.756 0 0 1 -1.175,0.6a2.287,2.287 0 0 1 -1.444,-0.184a2.465,2.465 0 0 1 -1.236,-1.477a3.36,3.36 0 0 1 0.04,-2.151a2.551,2.551 0 0 1 1.084,-1.347m1.184,1.192a1.128,1.128 0 0 0 -0.748,0.775a1.551,1.551 0 0 0 0.255,1.463a1.215,1.215 0 0 0 1.375,0.245a1.233,1.233 0 0 0 0.621,-0.615a1.524,1.524 0 0 0 0.014,-1.194a1.111,1.111 0 0 0 -0.637,-0.632a1.461,1.461 0 0 0 -0.879,-0.044l-0.001,0.002z"/>
      <path d="m26.25098,2.813a2.526,2.526 0 0 1 2.048,-0.415a2.442,2.442 0 0 1 1.035,0.615q0,-0.286 0,-0.571l1.666,0l0,5.6l-1.694,0c0,-0.18 0,-0.359 0,-0.538a2.392,2.392 0 0 1 -0.682,0.465a2.615,2.615 0 0 1 -2.087,-0.01a2.418,2.418 0 0 1 -1.284,-1.4a3.65,3.65 0 0 1 -0.157,-1.891a2.977,2.977 0 0 1 1.156,-1.851m1.456,1.134a1.24,1.24 0 0 0 -0.623,0.374a1.51,1.51 0 0 0 -0.208,1.567a1.221,1.221 0 0 0 0.731,0.7a1.385,1.385 0 0 0 1.55,-0.524a1.451,1.451 0 0 0 -0.259,-1.874a1.369,1.369 0 0 0 -1.192,-0.247l0.001,0.004z"/>
      <path d="m16.115,2.44301l1.68,0l0,5.6l-1.68,0q-0.001,-2.801 0,-5.6z"/>
    </g>
     <g id="ll-logo">
      <path d="m3.63399,4.209a1.542,1.542 0 0 1 0.855,-0.62a1.075,1.075 0 0 0 -0.164,0.151a1,1 0 0 1 0.529,0.07c0.021,0.157 0.033,0.316 0.058,0.473c0.02,-0.158 0.036,-0.316 0.056,-0.473a0.967,0.967 0 0 1 0.516,-0.07l0.012,0.009l0,-0.011a1.3,1.3 0 0 0 -0.166,-0.149a1.543,1.543 0 0 1 0.854,0.62a1.061,1.061 0 0 0 -0.193,-0.109a0.987,0.987 0 0 1 0.1,0.521c-0.145,0.068 -0.293,0.13 -0.436,0.2c0.157,-0.028 0.312,-0.063 0.469,-0.093a1,1 0 0 1 0.233,0.483a1.084,1.084 0 0 0 0.09,-0.195a1.526,1.526 0 0 1 -0.319,0.982a1.357,1.357 0 0 0 0.039,-0.2a1,1 0 0 1 -0.467,0.254c-0.111,-0.118 -0.217,-0.241 -0.33,-0.356c0.076,0.142 0.158,0.281 0.237,0.421a1,1 0 0 1 -0.388,0.369a1.393,1.393 0 0 0 0.206,0.025a1.543,1.543 0 0 1 -1.027,0a1.336,1.336 0 0 0 0.208,-0.025a0.994,0.994 0 0 1 -0.388,-0.369c0.078,-0.141 0.161,-0.279 0.236,-0.421c-0.113,0.116 -0.219,0.239 -0.331,0.356a1.006,1.006 0 0 1 -0.465,-0.254a1.283,1.283 0 0 0 0.039,0.205a1.531,1.531 0 0 1 -0.32,-0.983a1.176,1.176 0 0 0 0.091,0.2a0.989,0.989 0 0 1 0.233,-0.484c0.156,0.031 0.312,0.065 0.469,0.093c-0.143,-0.071 -0.291,-0.134 -0.437,-0.2a0.985,0.985 0 0 1 0.1,-0.52a1.047,1.047 0 0 0 -0.194,0.109m1.276,0.145l-0.674,0.489q0.128,0.4 0.258,0.793c0.278,0 0.556,0 0.835,0c0.084,-0.265 0.173,-0.528 0.257,-0.793l-0.676,-0.489z"/>
      <path d="m4.456,0l0.033,0a0.091,0.091 0 0 1 0.038,0.061q0.182,0.981 0.365,1.961a0.058,0.058 0 0 1 -0.044,0.076a2.307,2.307 0 0 0 -0.707,0.248a2.278,2.278 0 0 0 -0.883,0.865c-0.013,0.023 -0.03,0.049 -0.06,0.048a0.4,0.4 0 0 1 -0.108,-0.053l-1.658,-0.963a0.063,0.063 0 0 1 -0.04,-0.065a0.678,0.678 0 0 1 0.062,-0.114a4.426,4.426 0 0 1 1.814,-1.664a4.511,4.511 0 0 1 1.188,-0.4z"/>
      <path d="m5.633,0.494a4.441,4.441 0 0 1 2.985,1.054a0.469,0.469 0 0 1 0.059,0.054a0.063,0.063 0 0 1 -0.014,0.077l-1.306,1.507a0.071,0.071 0 0 1 -0.05,0.031c-0.027,0 -0.046,-0.021 -0.066,-0.036a2.286,2.286 0 0 0 -1.826,-0.528c-0.025,0 -0.053,0.012 -0.074,-0.005a0.065,0.065 0 0 1 -0.025,-0.05l-0.279,-1.889c0,-0.036 -0.013,-0.072 -0.014,-0.109a0.055,0.055 0 0 1 0.049,-0.053a4.368,4.368 0 0 1 0.561,-0.053z"/>
      <path d="m0.651,2.23101a0.068,0.068 0 0 1 0.07,0.006l1.768,0.948a0.062,0.062 0 0 1 0.015,0.1a2.28,2.28 0 0 0 -0.123,1.9c0.008,0.026 0.026,0.054 0.011,0.081s-0.048,0.033 -0.073,0.044l-1.835,0.706a0.06,0.06 0 0 1 -0.076,-0.016a1.262,1.262 0 0 1 -0.049,-0.123a4.431,4.431 0 0 1 0.263,-3.606a0.1,0.1 0 0 1 0.029,-0.04z"/>
      <path d="m8.53199,2.341a0.057,0.057 0 0 1 0.069,0.014a4.409,4.409 0 0 1 1.147,1.754a4.49,4.49 0 0 1 0.253,1.368l0,0.238a1,1 0 0 1 -0.01,0.125a0.065,0.065 0 0 1 -0.073,0.035c-0.667,-0.033 -1.334,-0.064 -2,-0.1a0.061,0.061 0 0 1 -0.055,-0.078a2.28,2.28 0 0 0 -0.7,-1.768a0.165,0.165 0 0 1 -0.05,-0.064a0.077,0.077 0 0 1 0.029,-0.063l1.323,-1.394a0.513,0.513 0 0 1 0.067,-0.067z"/>
      <path d="m1.884,5.76199a0.063,0.063 0 0 1 0.09,0.045a2.287,2.287 0 0 0 1.437,1.285a0.061,0.061 0 0 1 0.052,0.082q-0.3,0.958 -0.6,1.915a0.06,0.06 0 0 1 -0.086,0.043a4.427,4.427 0 0 1 -2.777,-2.508l0,-0.028a0.1,0.1 0 0 1 0.052,-0.044c0.611,-0.263 1.221,-0.528 1.832,-0.79z"/>
      <path d="m7.26201,6.01301a0.153,0.153 0 0 1 0.045,0l1.987,0.155a0.058,0.058 0 0 1 0.059,0.069a4.427,4.427 0 0 1 -1.815,3.259a0.059,0.059 0 0 1 -0.087,-0.015l-1.141,-1.554a0.338,0.338 0 0 1 -0.062,-0.1c-0.005,-0.035 0.028,-0.055 0.051,-0.072a2.283,2.283 0 0 0 0.921,-1.65c0.003,-0.033 0.002,-0.08 0.042,-0.092z"/>
      <path d="m5.579,7.45201a0.06,0.06 0 0 1 0.076,0.033q0.558,0.831 1.116,1.662c0.032,0.039 0,0.086 -0.041,0.1a4.439,4.439 0 0 1 -3.665,0.583a0.057,0.057 0 0 1 -0.041,-0.076q0.266,-0.968 0.534,-1.935a0.061,0.061 0 0 1 0.088,-0.042a2.288,2.288 0 0 0 1.511,-0.1a2.561,2.561 0 0 0 0.422,-0.225z"/>
    </g>
    <path id="bl" d="m7.965,7.222c0,1.713 -0.8,2.626 -2.975,2.626l-4.99,0l0,-9.648l4.8,0c2.243,0 3.017,0.885 3.017,2.514c0,1.243 -0.471,1.812 -1.8,2.142l-0.25,0.07l0.222,0.042c1.512,0.341 1.976,0.896 1.976,2.254zm-5.675,-2.984l2.021,0c0.8,0 1.164,-0.351 1.164,-1.176s-0.331,-1.215 -1.164,-1.215l-2.014,0l-0.007,2.391zm3.337,2.749c0,-0.885 -0.352,-1.257 -1.178,-1.257l-2.152,0l0,2.489l2.152,0c0.865,-0.007 1.185,-0.365 1.185,-1.236l-0.007,0l0,0.004zm3.91,-0.277l0,-6.51l2.409,0l0,6.425c0,1.053 0.485,1.464 1.786,1.464s1.789,-0.4 1.789,-1.464l0,-6.425l2.409,0l0,6.5c0,2.268 -1.315,3.3 -4.195,3.3s-4.188,-1.022 -4.188,-3.293l-0.007,0l-0.003,0.003zm19.691,-6.5l0,9.639l-2.933,0l-4.1,-6.969l0,6.966l-2.24,0l0,-9.646l2.933,0l4.1,6.966l0,-6.966l2.247,0.014l-0.007,-0.004zm1.983,0l4.3,0c3.376,0 4.262,1.383 4.262,4.81c0,3.332 -0.971,4.824 -4.262,4.824l-4.303,0l0,-9.634l0.003,0zm4.22,7.799c1.407,0 1.867,-0.734 1.867,-2.984s-0.457,-2.97 -1.867,-2.97l-1.829,0l0,5.969l1.829,-0.015zm6.1,-7.808l6.755,0l0,1.84l-4.349,0l0,2.022l3.611,0l0,1.812l-3.611,0l0,2.107l4.444,0l0,1.84l-6.853,0l0.003,-9.621zm8.281,9.269l0,-1.9a9.94,9.94 0 0 0 3.224,0.527c1.108,0 1.593,-0.291 1.593,-1.053c0,-0.65 -0.207,-0.843 -1.094,-1.022l-1.607,-0.33c-1.674,-0.351 -2.229,-1.022 -2.229,-2.668c0,-2.107 1.245,-3.026 3.752,-3.026a8.775,8.775 0 0 1 3.073,0.527l0,1.884a8.8,8.8 0 0 0 -2.933,-0.513c-1.192,0 -1.593,0.319 -1.593,1.053c0,0.621 0.278,0.8 1.055,0.969l1.565,0.33c1.814,0.386 2.31,0.994 2.31,2.721c0,2.061 -1.273,3 -3.868,3a9.652,9.652 0 0 1 -3.249,-0.5l0.001,0.001zm8.791,-9.269l2.409,0l0,7.794l4.139,0l0,1.84l-6.547,0l-0.001,-9.634zm8.052,0l2.409,0l0,9.634l-2.409,0l0,-9.634zm12.381,4.062l0,5.238a10.8,10.8 0 0 1 -3.337,0.5c-3.351,0 -4.923,-1.478 -4.923,-4.989s1.579,-4.989 4.923,-4.989a8.806,8.806 0 0 1 3.182,0.541l0,1.864a9.563,9.563 0 0 0 -2.989,-0.513c-2.022,0 -2.658,0.815 -2.658,3.1c0,2.377 0.665,3.16 2.574,3.16a9.284,9.284 0 0 0 1.259,-0.084l0,-2.161l-1.786,0l0,-1.657l3.755,-0.011l0,0.001zm7.866,3.553l-3.769,0l-0.679,2.019l-2.4,0l3.446,-9.634l3.073,0l3.432,9.634l-2.423,0l-0.68,-2.019zm-1.867,-6.1l-1.414,4.358l2.781,0l-1.367,-4.358z"/>
    <path id="bl-logo" d="m9.973,5.275c0.007,0.026 -0.015,0.044 -0.059,0.078l-0.027,0.016l0.009,0.019c0.006,0.012 0,0.031 -0.023,0.04l-0.04,0.021c-0.018,0.01 -0.038,0.008 -0.044,0l-0.009,-0.017l-0.051,0.026l0.008,0.018c0.006,0.012 -0.005,0.031 -0.024,0.04l-0.041,0.02c-0.019,0.009 -0.038,0.007 -0.044,-0.006l-0.007,-0.016c-0.157,0.078 -0.333,0.161 -0.514,0.25l0.01,0.024c0.006,0.012 -0.005,0.03 -0.024,0.039l-0.041,0.02c-0.019,0.009 -0.039,0.006 -0.044,-0.006l-0.011,-0.024l-0.058,0.03l0.011,0.025c0.005,0.013 -0.005,0.03 -0.024,0.04l-0.041,0.02c-0.019,0.009 -0.038,0.007 -0.044,-0.006l-0.011,-0.024a0.158,0.158 0 0 1 -0.237,-0.08c-0.028,-0.06 -0.029,-0.2 -0.051,-0.271a0.07,0.07 0 0 0 -0.053,-0.045c-0.8,-0.162 -1.068,0.018 -1.579,-0.115c-0.161,-0.042 -0.248,-0.2 -0.446,-0.2c-0.432,-0.014 -0.559,-0.007 -1.028,-0.026c-0.02,0.072 -0.023,0.088 -0.023,0.088l-1.646,-0.008l0.252,0.131l0.081,0.77s-0.067,0.02 -0.086,0.023c0.016,0.153 0.031,0.361 0.039,0.548c0.007,0.168 0.015,0.343 0.014,0.454a0.415,0.415 0 0 1 -0.171,0.35c-0.015,0.012 -0.079,0.057 -0.152,0.1s-0.162,0.1 -0.206,0.118a0.572,0.572 0 0 0 0.024,0.06c-1,0.513 -2.24,0.688 -2.642,1.5c-0.048,0.095 -0.21,0.045 -0.215,-0.056l0,-0.165l-0.014,0c-0.013,0 -0.023,-0.019 -0.022,-0.041l0,-0.048c0,-0.022 0.012,-0.039 0.025,-0.039l0.017,0a0.973,0.973 0 0 1 0.025,-0.139l-0.015,-0.006c-0.012,0 -0.016,-0.025 -0.009,-0.046l0.015,-0.045c0.007,-0.021 0.022,-0.034 0.035,-0.03l0.015,0.006c0.072,-0.177 0.209,-0.254 0.274,-0.422l-0.01,0c-0.013,-0.005 -0.017,-0.025 -0.01,-0.046l0.015,-0.045c0.007,-0.021 0.023,-0.034 0.035,-0.029l0.011,0c0.01,-0.024 0.021,-0.051 0.033,-0.078l-0.013,-0.01c-0.012,-0.008 -0.012,-0.028 0,-0.047l0.024,-0.04c0.011,-0.018 0.028,-0.027 0.039,-0.02l0.006,0l0.006,0a0.008,0.008 0 0 0 0.008,0l0.02,-0.021a0.174,0.174 0 0 1 0.212,0a0.42,0.42 0 0 0 0.545,-0.037c0.39,-0.371 0.847,-0.876 1.19,-0.893a4.48,4.48 0 0 1 -0.273,-0.823l-0.111,-0.025a6.144,6.144 0 0 1 -0.249,-1.25a3.212,3.212 0 0 1 0,-0.692c-0.026,0 -0.075,0.039 -0.088,0.04a5.9,5.9 0 0 1 0.343,-1.945l0.31,-0.131c-0.032,0 -0.256,-0.015 -0.844,-0.066c-0.331,0.31 -0.71,0.643 -0.9,0.823a0.9,0.9 0 0 0 -0.087,0.223a2.262,2.262 0 0 1 -0.188,0.157c-0.119,0.089 -0.41,0.157 -0.474,0.051c-0.014,-0.026 -0.012,-0.037 0,-0.051c0.045,-0.051 0.216,-0.136 0.273,-0.251a0.551,0.551 0 0 1 -0.278,0.093c-0.036,0 -0.054,-0.094 -0.008,-0.111c0.124,-0.055 0.222,-0.079 0.295,-0.188a0.331,0.331 0 0 1 0.268,-0.177s0.547,-0.758 0.87,-1.119a0.3,0.3 0 0 1 0.255,-0.066l0.028,-0.115a4.959,4.959 0 0 1 1.621,0.041c-0.012,-0.331 0.128,-0.771 0.617,-0.771a0.756,0.756 0 0 1 0.672,0.521c0.015,0.088 -0.033,0.147 -0.058,0.258a2.092,2.092 0 0 0 0,0.415c-0.014,0.048 -0.066,0.044 -0.11,0.11a1.4,1.4 0 0 0 -0.1,0.2l-0.067,0.159l-0.345,-0.026a6.243,6.243 0 0 0 -0.475,1.459l0,0c0.271,0.024 1.5,0.213 1.5,0.213l0.03,0.106a3.336,3.336 0 0 1 0.94,0.279a1.852,1.852 0 0 1 0.488,0.063c0.011,-0.007 0.036,-0.035 0.048,-0.042c0.552,0.18 1.008,0.486 1.539,0.623c0,0 0.249,0.064 0.332,0.081a3.169,3.169 0 0 0 0.427,0.058c0.17,0.014 0.265,0.012 0.389,0.019c0.088,0.006 0.2,-0.01 0.231,0.126m0.79,-1.778a0.722,0.722 0 1 0 0.679,0.722l0,0a0.7,0.7 0 0 0 -0.681,-0.72l0,0l0.002,-0.002z"/>
    <g id="l1">
      <path d="m2.6,0l0,7.731l3.165,0l0,2.269l-5.765,0l0,-10l2.6,0z"/>
      <rect x="9.29" y="0" height="10" width="2.608"/>
      <path d="m20.329,0.006a4.524,4.524 0 0 1 4.2,2.334l-1.947,1.068a2.552,2.552 0 0 0 -2.281,-1.286c-1.592,0 -2.311,1.294 -2.311,2.987c0,1.578 0.727,2.841 2.527,2.841a2.07,2.07 0 0 0 2.064,-1.652l-2.129,0l0,-1.945l4.657,0l0,0.51a4.508,4.508 0 0 1 -4.76,5.127a4.767,4.767 0 0 1 -4.858,-4.976a4.848,4.848 0 0 1 4.838,-5.008"/>
      <path d="m31.383,0l0,5.965a1.575,1.575 0 0 0 1.75,1.75a1.556,1.556 0 0 0 1.729,-1.62l0,-6.095l2.565,0l0,6.22c0,2.221 -1.514,3.78 -4.346,3.78c-2.14,0 -4.234,-1.115 -4.234,-3.5l0,-6.5l2.536,0z"/>
      <path d="m44.021,7.778l3.237,0l0,2.222l-5.848,0l0,-10l5.789,0l0,2.271l-3.178,0l0,1.621l3,0l0,2.216l-3,0l0,1.67z"/>
      <path d="m60.001,10l-2.617,0l0,-7.856l-1.435,0l0,-2.144l4.052,0l0,10z"/>
    </g>
    <g id="l1-logo">
      <path d="m6.797,4.991a1.447,1.447 0 1 1 -1.446,-1.443a1.452,1.452 0 0 1 1.447,1.447"/>
      <path d="m8.337,1.387l-1.111,1.778a17.118,17.118 0 0 1 1.3,2.153a18.335,18.335 0 0 1 -1.682,2.74a19.7,19.7 0 0 1 -2.684,0.02l-1.118,1.79a19.39,19.39 0 0 0 4.854,-0.044a21.5,21.5 0 0 0 2.807,-4.5a18.847,18.847 0 0 0 -2.363,-3.942"/>
      <path d="m2.176,4.664a17.871,17.871 0 0 1 1.682,-2.74a19.909,19.909 0 0 1 2.685,-0.021l1.118,-1.79a22.094,22.094 0 0 0 -4.854,0.044a20.611,20.611 0 0 0 -2.807,4.506a18.774,18.774 0 0 0 2.364,3.932l1.111,-1.778a19.333,19.333 0 0 1 -1.3,-2.153"/>
    </g>
    <g id="sa">
      <path d="m3.794,10.00101a6.112,6.112 0 0 1 -2.124,-0.379a4.473,4.473 0 0 1 -1.61,-0.949a0.165,0.165 0 0 1 -0.016,-0.241l1.084,-1.239c0.057,-0.075 0.127,-0.08 0.213,-0.013a4.053,4.053 0 0 0 2.536,1a1.9,1.9 0 0 0 1.162,-0.314a1,1 0 0 0 0.42,-0.84a0.849,0.849 0 0 0 -0.334,-0.713a2.558,2.558 0 0 0 -1.162,-0.371l-0.513,-0.07q-3.065,-0.428 -3.065,-2.907a2.715,2.715 0 0 1 0.933,-2.152a3.673,3.673 0 0 1 2.5,-0.812a5.235,5.235 0 0 1 3.293,1.011a0.128,0.128 0 0 1 0.029,0.213l-0.869,1.3a0.134,0.134 0 0 1 -0.2,0.042a4.132,4.132 0 0 0 -2.251,-0.742a1.422,1.422 0 0 0 -0.962,0.293a0.963,0.963 0 0 0 -0.334,0.762a0.828,0.828 0 0 0 0.35,0.692a2.6,2.6 0 0 0 1.162,0.379l0.513,0.07q3.049,0.412 3.049,2.935a2.753,2.753 0 0 1 -0.991,2.209a4.249,4.249 0 0 1 -2.813,0.836z"/>
      <path d="m8.935,9.85301l0,-9.706a0.129,0.129 0 0 1 0.147,-0.147l6.41,0a0.129,0.129 0 0 1 0.147,0.147l0,1.573a0.129,0.129 0 0 1 -0.147,0.147l-4.307,0a0.078,0.078 0 0 0 -0.088,0.088l0,1.985a0.078,0.078 0 0 0 0.088,0.088l3.588,0a0.129,0.129 0 0 1 0.147,0.147l0,1.56a0.129,0.129 0 0 1 -0.147,0.147l-3.588,0a0.078,0.078 0 0 0 -0.088,0.088l0,2.073a0.078,0.078 0 0 0 0.088,0.088l4.31,0a0.129,0.129 0 0 1 0.147,0.147l0,1.573a0.129,0.129 0 0 1 -0.147,0.147l-6.413,0a0.129,0.129 0 0 1 -0.147,-0.145z"/>
      <path d="m24.73499,10.00001l-2.089,0a0.215,0.215 0 0 1 -0.219,-0.147l-1.72,-3.662l-1.338,0a0.078,0.078 0 0 0 -0.088,0.088l0,3.574a0.129,0.129 0 0 1 -0.147,0.147l-1.867,0a0.129,0.129 0 0 1 -0.147,-0.147l0,-9.706a0.129,0.129 0 0 1 0.147,-0.147l3.986,0a3.489,3.489 0 0 1 2.464,0.861a2.9,2.9 0 0 1 0.934,2.242a3.033,3.033 0 0 1 -0.471,1.683a2.916,2.916 0 0 1 -1.308,1.1l1.972,3.941a0.13,0.13 0 0 1 0,0.118a0.115,0.115 0 0 1 -0.109,0.055zm-3.6,-5.647a1.4,1.4 0 0 0 0.984,-0.337a1.3,1.3 0 0 0 0,-1.808a1.4,1.4 0 0 0 -0.984,-0.337l-1.766,0a0.078,0.078 0 0 0 -0.088,0.088l0,2.309a0.078,0.078 0 0 0 0.088,0.088l1.766,0l0,-0.003z"/>
      <path d="m26.02001,9.85301l0,-9.706a0.129,0.129 0 0 1 0.147,-0.147l1.867,0a0.129,0.129 0 0 1 0.147,0.147l0,9.706a0.129,0.129 0 0 1 -0.147,0.147l-1.867,0a0.129,0.129 0 0 1 -0.147,-0.147z"/>
      <path d="m30.11399,9.85301l0,-9.706a0.129,0.129 0 0 1 0.147,-0.147l6.41,0a0.129,0.129 0 0 1 0.147,0.147l0,1.573a0.129,0.129 0 0 1 -0.147,0.147l-4.31,0a0.078,0.078 0 0 0 -0.088,0.088l0,1.985a0.078,0.078 0 0 0 0.088,0.088l3.587,0a0.129,0.129 0 0 1 0.147,0.147l0,1.56a0.129,0.129 0 0 1 -0.147,0.147l-3.587,0a0.078,0.078 0 0 0 -0.088,0.088l0,2.073a0.078,0.078 0 0 0 0.088,0.088l4.31,0a0.129,0.129 0 0 1 0.147,0.147l0,1.573a0.129,0.129 0 0 1 -0.147,0.147l-6.41,0a0.13,0.13 0 0 1 -0.147,-0.145z"/>
      <path d="m40.934,9.85301l3.44,-9.706a0.184,0.184 0 0 1 0.19,-0.147l1.854,0a0.182,0.182 0 0 1 0.19,0.147l3.381,9.706c0.029,0.1 -0.005,0.147 -0.1,0.147l-1.913,0a0.182,0.182 0 0 1 -0.19,-0.147l-0.573,-1.75l-3.5,0l-0.559,1.75a0.184,0.184 0 0 1 -0.19,0.147l-1.925,0c-0.102,0.001 -0.134,-0.048 -0.105,-0.147zm3.382,-3.587l2.309,0l-1.132,-3.5l-0.045,0l-1.132,3.5z"/>
    </g>
    <path id="sa-logo" d="m8,7.482l0,0l-3.183,-7.487l-1.653,0l-3.165,7.482l4,2.522l-1.565,-2.523l1.565,-4.373l0.731,2.037l-0.731,0l-0.417,1.264l1.6,0l0.382,1.071l-1.565,2.522"/>
  </defs>
</svg>